<svg width="106" height="87" viewBox="0 0 106 87" fill="none" xmlns="http://www.w3.org/2000/svg">
<path d="M68.817 41.069C72.0094 39.6798 72.9294 34.854 70.872 30.2904C68.8145 25.7267 64.5587 23.1533 61.3663 24.5426C58.1739 25.9318 57.2538 30.7576 59.3113 35.3212C61.3687 39.8849 65.6246 42.4582 68.817 41.069Z" fill="#BA2026"/>
<path d="M15.2795 36.951L14.0966 37.3967L9.65229 39.0214C2.50344 41.6334 -1.02218 49.2098 1.77994 55.9456C4.5878 62.6814 12.6554 66.0211 19.8042 63.4092L24.2428 61.7844L25.4429 61.3613L15.2795 36.951Z" fill="#808080"/>
<path d="M54.538 11.7905L53.6193 12.7721C47.4063 19.4294 40.1125 25.0283 32.0349 29.3409C26.0582 32.5258 19.8606 35.2931 13.4881 37.6224L8.98057 39.2641C6.48214 40.1312 4.29854 41.7012 2.70168 43.7787C1.10482 45.8561 0.165261 48.3492 0 50.9474L3.07774 49.8191C3.39388 49.7026 3.74334 49.709 4.05488 49.8369C4.36642 49.9647 4.6166 50.2045 4.75442 50.5074C4.81436 50.6586 4.84251 50.8201 4.83718 50.9823C4.83184 51.1445 4.79313 51.3039 4.72338 51.451C4.65362 51.5981 4.55427 51.7297 4.43131 51.8381C4.30836 51.9464 4.16434 52.0291 4.00795 52.0813L0.160778 53.4973C0.249585 54.0406 0.374259 54.5777 0.534011 55.1051L3.87588 53.8809C4.19343 53.7611 4.54569 53.7657 4.85988 53.8938C5.17407 54.0219 5.42616 54.2636 5.56405 54.5692C5.62399 54.7204 5.65214 54.8819 5.64681 55.0441C5.64147 55.2063 5.60276 55.3657 5.53301 55.5128C5.46325 55.6599 5.3639 55.7915 5.24094 55.8999C5.11798 56.0082 4.97397 56.0909 4.81758 56.1431L1.47571 57.3617C1.73904 57.8537 2.03441 58.3286 2.35998 58.7833L4.14002 58.1345C4.45756 58.0147 4.80983 58.0193 5.12402 58.1474C5.4382 58.2755 5.69029 58.5173 5.82818 58.8228C5.88812 58.974 5.91628 59.1355 5.91094 59.2977C5.90561 59.4599 5.86689 59.6193 5.79714 59.7664C5.72739 59.9135 5.62804 60.0451 5.50508 60.1535C5.38212 60.2618 5.2381 60.3446 5.08171 60.3967L4.09408 60.7521C6.07821 62.554 8.53264 63.7792 11.1838 64.2911C13.835 64.8031 16.5789 64.5818 19.1095 63.6518L23.6113 62.0045C30.0225 59.6626 36.592 57.7625 43.2721 56.318C52.4166 54.3653 61.8197 53.8587 71.1268 54.8174L72.5163 54.9584L54.538 11.7905Z" fill="#E8E8E8"/>
<path d="M28.7734 61.6492L29.2558 65.4797C29.2778 65.6834 29.2291 65.8884 29.1176 66.0615C29.006 66.2345 28.8382 66.3655 28.6414 66.433L28.4863 66.4895L26.2642 62.5687L28.7734 61.6492Z" fill="#BA2026"/>
<path d="M25.9597 85.7999L14.8718 66.2355L26.7521 61.8973L29.7839 69.8573C31.3984 74.0356 33.3992 78.0597 35.7614 81.8791C35.8601 82.058 35.9177 82.256 35.9302 82.4591C35.9427 82.6622 35.9097 82.8656 35.8336 83.0548C35.7576 83.2441 35.6402 83.4147 35.4898 83.5546C35.3395 83.6946 35.1597 83.8005 34.9633 83.8649L27.8833 86.4543C27.5361 86.5904 27.1507 86.5991 26.7975 86.479C26.4443 86.3588 26.1469 86.1177 25.9597 85.7999Z" fill="#262626"/>
<path d="M12.6554 66.2243L2.38863 41.5602C2.31862 41.4016 2.28249 41.2305 2.28247 41.0576C2.28245 40.8847 2.31854 40.7137 2.38851 40.555C2.45848 40.3964 2.56084 40.2535 2.68926 40.1353C2.81768 40.0171 2.96942 39.9261 3.1351 39.8678L18.7535 34.1587C19.0697 34.0425 19.4197 34.0531 19.728 34.1882C20.0363 34.3233 20.2782 34.572 20.4014 34.8808L30.674 59.5449C30.7413 59.7042 30.7752 59.8752 30.7736 60.0476C30.772 60.2201 30.735 60.3905 30.6647 60.5485C30.5945 60.7066 30.4924 60.849 30.3648 60.9674C30.2371 61.0858 30.0864 61.1776 29.9218 61.2373L14.3091 66.9351C13.9936 67.0522 13.644 67.0433 13.335 66.9105C13.026 66.7777 12.7821 66.5314 12.6554 66.2243Z" fill="#DE1F26"/>
<path d="M71.5345 54.9132L53.9237 12.6028C53.7he3 12.2978 53.7327 11.9707 53.7365 11.6411C53.7403 11.3114 53.8116 10.9858 53.946 10.6838C54.0805 10.3817 54.2754 10.1093 54.5191 9.88265C54.7629 9.65604 55.0505 9.47989 55.3649 9.36467L55.4683 9.33082C56.0765 9.10595 56.7501 9.12342 57.3455 9.37951C57.9408 9.6356 58.4108 10.1101 58.6551 10.7017L76.2717 53.0121C76.3981 53.3175 76.4609 53.6448 76.4563 53.9745C76.4517 54.3042 76.3798 54.6297 76.2448 54.9316C76.1099 55.2335 75.9147 55.5058 75.6708 55.7323C75.4269 55.9588 75.1392 56.1349 74.8247 56.2502L74.7271 56.2841C74.1179 56.5062 73.4446 56.4875 72.8492 56.2318C72.2537 55.9761 71.7824 55.5034 71.5345 54.9132Z" fill="#E01F26"/>
<g style="mix-blend-mode: multiply" opacity="0.17">
<path d="M35.7616 81.8791C33.3995 78.0596 31.3986 74.0355 29.7841 69.8573L28.5037 66.4724L28.6415 66.4217C28.8383 66.3541 29.0061 66.2232 29.1177 66.0501C29.2292 65.877 29.2779 65.672 29.2559 65.4683L28.7735 61.6378L29.922 61.2147C30.0804 61.1605 30.2263 61.0757 30.3509 60.9653C30.4755 60.8549 30.5764 60.7211 30.6476 60.5718C30.7188 60.4225 30.7588 60.2607 30.7653 60.0959C30.7719 59.9312 30.7448 59.7668 30.6856 59.6125C34.8352 58.3451 39.0308 57.2469 43.2722 56.318C52.4167 54.3652 61.8199 53.8587 71.1269 54.8173L71.5174 54.8568C71.787 55.46 72.2834 55.9376 72.9029 56.1899C73.5223 56.4422 74.217 56.4496 74.842 56.2108C75.1506 56.1083 75.4349 55.9454 75.6777 55.732C75.9205 55.5186 76.1168 55.2591 76.2547 54.9692C76.3926 54.6792 76.4693 54.3648 76.4801 54.0449C76.4909 53.7251 76.4357 53.4063 76.3177 53.108L70.6733 39.5687C72.2121 37.5096 72.4418 34.0401 71.0178 30.6271L1.78017 55.9456C1.94095 56.3236 2.11895 56.6959 2.30844 57.0739L1.46436 57.3842C1.72769 57.8762 2.02306 58.3511 2.34863 58.8058L3.19271 58.5012C3.69961 59.2115 4.27661 59.871 4.91533 60.47L4.08273 60.7746C6.2429 62.7593 8.97428 64.0399 11.9034 64.4415L12.6499 66.2355C12.7903 66.5474 13.0477 66.7942 13.3685 66.9245C13.6893 67.0547 14.0489 67.0585 14.3725 66.935L15.1017 66.6699L25.9599 85.8224C26.1462 86.1338 26.4387 86.3704 26.7855 86.4902C27.1324 86.61 27.5112 86.6052 27.8548 86.4768L34.9348 83.8874C35.1369 83.8268 35.3228 83.7227 35.4787 83.5825C35.6346 83.4422 35.7567 83.2696 35.8359 83.0771C35.9152 82.8846 35.9496 82.6771 35.9368 82.4698C35.9239 82.2625 35.8641 82.0607 35.7616 81.8791Z" fill="#231F20"/>
</g>
<path d="M67.4231 19.1582L68.3935 18.4361L78.8325 10.6509L72.545 9.3365L83.3343 0L69.1687 9.86115L74.9509 10.5945" fill="white"/>
<path d="M81.4854 41.3796L82.5649 41.6955L94.0662 45.0803L92.5905 40.8888L105.654 43.9126L90.6726 39.0723L92.4699 42.7617" fill="white"/>
</svg>